PathFileType	4	(X/Y/Z)	PS_ngait_og_ss8.trc	
DataRate	CameraRate	NumFrames	NumMarkers	Units	OrigDataRate	OrigDataStartFrame	OrigNumFrames	
120.00	120.00	8	39	mm	120.00	378	129	
Frame#	Time	Sternum			Neck			RShoulder			LShoulder			Xiphoid			Thoracic			RAsis			LAsis			RPsis			LPsis			LThighSuperior			LThighInferior			LThighLateral			LShankSuperior			LShankInferior			LShankLateral			RThighSuperior			RThighInferior			RThighLateral			RShankSuperior			RShankInferior			RShankLateral			RHeel			RToe			RMidfootMedial			RMidfootLateral			RHindfoot			RMidfootSuperior			RToeMedial			RToeLateral			LHeel			LToe			LMidfootMedial			LMidfootLateral			LHindfoot			LMidfootSuperior			LToeMedial			LToeLateral			Sacral			
		X1	Y1	Z1	X2	Y2	Z2	X3	Y3	Z3	X4	Y4	Z4	X5	Y5	Z5	X6	Y6	Z6	X7	Y7	Z7	X8	Y8	Z8	X9	Y9	Z9	X10	Y10	Z10	X11	Y11	Z11	X12	Y12	Z12	X13	Y13	Z13	X14	Y14	Z14	X15	Y15	Z15	X16	Y16	Z16	X17	Y17	Z17	X18	Y18	Z18	X19	Y19	Z19	X20	Y20	Z20	X21	Y21	Z21	X22	Y22	Z22	X23	Y23	Z23	X24	Y24	Z24	X25	Y25	Z25	X26	Y26	Z26	X27	Y27	Z27	X28	Y28	Z28	X29	Y29	Z29	X30	Y30	Z30	X31	Y31	Z31	X32	Y32	Z32	X33	Y33	Z33	X34	Y34	Z34	X35	Y35	Z35	X36	Y36	Z36	X37	Y37	Z37	X38	Y38	Z38	X39	Y39	Z39	

1	0.000	87.52021	1415.30713	138.84988	-74.76561	1520.96765	151.66367	-18.52566	1506.60242	308.52020	-52.12502	1508.39807	9.67799	114.26605	1257.09875	146.95668	-162.29852	1305.95203	162.11156	23.37912	1001.44104	293.79361	32.87243	985.54620	15.76135	-164.44179	1020.52185	207.50385	-165.51874	1013.54230	102.45698	0.73593	824.16125	-40.07740	109.68967	619.45990	-15.11695	146.03032	742.02698	32.01500	182.54024	395.71628	-27.50109	217.61418	195.87079	0.40562	241.85092	301.25128	34.39257	-68.11030	811.94299	340.21976	-122.07710	577.43738	312.54727	3.80560	707.56781	269.62189	-190.79124	429.61432	320.71356	-288.04010	191.75032	289.86517	-193.98764	291.04068	244.32388	-415.86349	93.57180	242.82582	-103.46608	37.24240	245.44469	-205.60951	32.83203	195.10612	-206.66153	28.18625	316.73465	-258.38931	35.26772	307.13892	-230.07962	97.74815	248.80209	-159.01111	30.14542	199.07243	-155.70697	28.86958	302.49374	177.00674	57.15889	56.15075	472.27475	129.86075	-1.25375	392.01053	76.70992	62.21427	377.57715	73.53217	-50.89766	327.93008	59.49125	-35.81089	348.73712	132.70721	18.16405	430.88602	90.28093	53.21012	417.43835	96.64825	-49.73675	-164.98026	1017.03204	154.98041 
2	0.008	96.19401	1414.43762	136.97290	-66.00961	1520.00000	149.79826	-10.12045	1505.84985	306.45651	-43.12187	1507.41833	7.64194	123.48831	1256.53979	145.05219	-153.06641	1304.89148	159.92577	32.57124	1000.41193	292.42200	43.76572	984.86725	13.73877	-154.71716	1019.52100	204.98404	-155.08772	1012.39044	99.52311	12.69215	823.15424	-40.65290	119.04777	617.25952	-14.78595	155.97040	738.81824	30.41927	189.19406	392.58560	-26.20367	221.73871	193.61374	1.64271	247.66714	298.22293	35.45330	-59.30839	811.66895	338.90570	-113.20560	576.98651	311.57977	13.22218	707.18542	269.08279	-183.84537	429.71375	319.66302	-284.90472	193.86037	289.35480	-189.40340	291.38797	243.93344	-414.21884	97.83639	242.50555	-103.13364	36.63546	245.75867	-205.18811	32.55202	195.02489	-206.55746	28.39065	316.68158	-257.78766	36.38738	307.04996	-229.44527	97.80334	248.41707	-158.54440	29.64443	199.21002	-155.62538	28.75201	302.64694	179.29672	57.92125	56.34967	476.09824	122.23170	1.26431	395.43912	71.14605	64.10595	379.85376	69.58075	-49.71705	331.12793	54.90906	-33.43716	352.69388	127.91116	20.08423	433.92560	83.23509	55.54723	420.00229	91.20342	-47.22479	-154.90244	1015.95569	152.25357 
3	0.017	104.98884	1413.98120	135.35286	-57.35941	1519.22925	147.80025	-1.89935	1505.19263	304.37964	-34.16335	1506.62769	5.34936	133.04457	1256.37000	143.30981	-143.73866	1303.87708	157.53244	41.83303	999.19397	290.70740	54.83067	984.24872	11.83492	-144.84187	1018.77789	202.05951	-144.50839	1011.47241	96.59302	24.28025	821.87756	-41.28830	127.28303	615.06189	-14.61698	166.23750	735.53528	28.82997	195.81400	389.86899	-25.66559	226.94951	191.24341	2.02189	253.77866	295.31467	36.08490	-50.27034	811.30505	337.50574	-103.78350	576.61224	310.68604	22.63296	706.30109	268.36023	-175.89412	430.25464	319.30429	-281.31027	196.25284	288.83112	-183.72908	291.45755	243.61169	-412.27039	102.50102	242.26199	-102.45443	35.88687	245.64803	-204.27802	33.45531	196.76984	-206.40839	28.58206	316.51886	-257.12241	37.65454	307.08566	-227.90160	98.68565	250.39421	-158.58698	29.89059	199.83115	-154.25851	28.36210	303.21124	181.76123	58.72046	55.42030	480.49048	113.27926	4.90696	399.07126	65.46115	66.61349	384.56943	61.91452	-46.91216	335.06915	49.52523	-31.35667	357.65204	122.72314	21.88694	436.81439	76.03395	59.23090	424.50461	82.47820	-43.85344	-144.67514	1015.12518	149.32626 
4	0.025	113.14788	1413.74500	133.95161	-48.71888	1518.62891	145.53998	5.99982	1504.81384	302.12378	-25.07978	1506.05200	3.03432	142.58485	1256.47290	141.64577	-134.30862	1303.07910	154.91196	51.30816	998.52563	289.09543	66.09640	983.67432	10.35926	-134.77518	1018.27075	199.23703	-133.87039	1010.61218	93.73507	35.22293	820.83289	-42.34486	134.94691	612.82214	-14.63651	176.70299	733.48285	28.54374	202.81348	387.52930	-25.82139	232.88655	188.90588	1.91627	260.01678	292.54523	36.29482	-40.99876	811.14618	335.97528	-93.73447	576.19604	309.79416	32.61163	706.21838	267.49176	-167.40904	430.77042	318.81027	-277.27475	198.92305	288.49399	-177.60127	292.11667	243.27457	-409.76196	107.78114	241.86574	-102.34536	35.26793	246.16046	-203.62445	33.49571	196.27260	-206.27081	28.85085	316.43414	-256.38181	39.23501	306.90897	-227.37320	98.98573	249.52016	-158.04849	29.60286	199.78081	-154.78912	28.21751	303.20215	184.66675	60.01722	54.44387	485.36346	103.50406	8.43447	399.49225	58.21722	69.95534	388.55835	54.90060	-44.36196	339.34277	43.37570	-29.07385	362.85443	117.28384	23.55728	439.31796	68.25811	62.13212	429.35339	74.23496	-41.23337	-134.32278	1014.44147	146.48605 
5	0.033	122.30157	1413.93689	132.18839	-40.02267	1518.25269	143.01735	13.71007	1504.56396	299.75266	-15.88931	1505.66162	0.67805	152.41980	1256.95203	139.88519	-124.79971	1302.38916	152.05478	61.05216	997.52747	287.10684	77.31533	983.79108	8.93837	-124.54828	1017.86786	196.36891	-123.29827	1010.01117	91.00142	45.59388	820.01221	-43.61009	142.60454	610.90613	-14.95752	185.54756	730.14551	27.34228	210.26236	385.59061	-26.48440	238.84631	187.06992	1.00375	266.20996	290.14084	36.35789	-31.36431	811.05328	334.37903	-82.74231	575.72772	309.08081	43.17176	705.97955	266.80560	-158.16119	431.23474	318.40631	-272.77505	201.95599	288.14825	-171.07109	292.88980	243.27631	-406.64709	113.81865	241.86812	-101.80011	34.63919	245.69873	-203.13625	34.08255	195.59525	-205.97023	29.32465	316.37756	-255.32355	41.05415	306.73169	-226.09119	99.78883	248.93280	-157.49341	29.66238	199.22839	-154.40918	28.13578	302.65311	187.14455	61.67094	53.37860	489.69016	93.59294	10.63754	401.24036	51.64862	71.45824	391.67407	48.61082	-42.68634	341.30310	39.70086	-29.01380	367.99210	111.86275	24.47358	441.74542	60.25406	63.88906	433.14435	66.38144	-39.59000	-123.92327	1013.93951	143.68517 
6	0.042	131.45624	1414.43945	130.25209	-31.34675	1518.11353	140.14075	21.40482	1504.56506	297.31747	-6.60930	1505.39258	-1.81412	162.30228	1257.68823	138.41821	-115.18096	1301.82532	149.02097	70.81785	997.13721	285.06967	88.52782	984.24432	7.74423	-114.33653	1017.64557	193.45158	-112.79884	1009.63617	88.32969	55.42338	819.45514	-44.97709	150.71730	609.55176	-15.63666	194.00455	727.76752	26.61406	217.95175	383.94577	-27.33519	244.73396	184.98877	-0.33700	272.06479	288.02377	36.27969	-21.39528	810.84192	332.68686	-71.16339	575.12805	308.69702	54.04078	706.12842	266.00409	-147.98936	431.38263	317.92029	-267.60367	205.34543	287.79892	-163.69113	293.99384	243.14490	-403.19617	120.70728	241.42552	-101.35177	34.04721	245.76926	-202.63914	34.76581	195.08284	-205.51764	29.94011	316.28354	-254.13112	43.11480	306.62482	-224.85381	100.70458	248.46112	-156.87761	29.78542	199.02824	-154.30928	28.14174	302.46527	189.10939	62.77402	52.79504	493.03146	84.61091	10.48675	403.03894	46.35176	71.40255	393.57968	42.37251	-42.70865	342.59622	36.20561	-29.63737	371.92743	107.33978	24.10400	443.80817	53.48258	63.90957	435.75473	58.81150	-39.65773	-113.56769	1013.64087	140.89064 
7	0.050	140.70711	1415.16809	128.35489	-22.64279	1518.13550	137.12045	29.20702	1504.79004	294.86954	2.81003	1505.36060	-4.41107	172.33821	1258.54089	136.79562	-105.53955	1301.52039	145.83060	80.72405	996.56232	282.84711	99.48474	985.37689	6.63514	-104.08791	1017.71320	190.67532	-102.50895	1009.62836	85.91563	64.80543	819.12183	-46.39146	159.71532	609.00012	-16.64202	203.00157	726.63666	26.23866	225.58600	383.06726	-28.51358	249.84155	182.85559	-0.86992	277.48062	286.05792	35.80343	-11.18875	810.67120	330.93881	-58.56034	574.40845	308.33011	65.62299	706.23810	265.43036	-137.08430	432.22980	318.00958	-261.70193	209.08022	287.45782	-155.81145	295.07242	243.16246	-399.09564	128.54773	241.02129	-100.93099	33.36942	245.78963	-201.86708	35.29089	194.83774	-204.97755	30.58205	316.00980	-252.73135	45.52309	306.21082	-223.61633	101.53502	248.01735	-156.34488	29.75651	198.86148	-154.15015	28.15008	302.30768	190.04909	63.32757	52.37981	495.16849	77.59917	8.50897	404.32703	43.07686	70.31770	394.39288	37.18513	-43.90983	342.94766	32.98606	-30.74012	374.14713	103.65877	22.19151	445.23065	48.89459	62.62147	437.04727	52.49009	-41.01031	-103.29842	1013.67078	138.29547 
8	0.058	150.24577	1416.32764	126.54128	-13.87439	1518.48608	134.02803	37.07375	1505.32019	292.35379	12.34281	1505.58911	-7.08722	182.07552	1259.61035	135.41441	-95.89299	1301.59509	142.47946	90.41413	996.35297	280.61432	110.13287	986.39618	5.78139	-94.03696	1018.22699	187.88956	-92.44896	1010.05908	83.74016	73.68992	819.41718	-48.07843	169.49133	609.41290	-18.39710	212.22688	726.66284	25.87821	233.00677	382.62112	-30.02330	253.36658	182.23434	-1.87512	282.50333	284.73117	34.85981	-0.41897	810.39551	329.01770	-45.06935	573.64545	308.06235	77.58799	706.49823	264.77771	-125.25502	433.08102	318.18201	-255.15430	213.09373	287.33914	-147.01923	296.39645	243.34354	-393.85440	137.05441	240.82272	-100.66868	32.86076	245.72116	-200.71060	35.64217	194.95319	-204.23900	31.45162	316.07559	-251.13510	48.42759	306.13373	-222.61859	102.34801	247.43741	-156.02744	29.65674	198.69833	-154.04991	28.43758	302.15421	190.52374	63.74311	52.07014	496.87158	72.87922	7.57131	405.00470	41.17062	69.54595	394.98898	34.92783	-44.64710	342.88977	31.29112	-31.37219	375.31949	101.63000	20.98715	446.13171	45.84976	61.80024	438.11649	49.09956	-41.85609	-93.24296	1014.14301	135.81487 
